<svg width="37" height="36" viewBox="0 0 37 36" fill="none" xmlns="http://www.w3.org/2000/svg">
<path d="M3.14114 26.7977C5.25079 30.4556 8.46286 33.0877 12.1032 34.5031C12.1111 34.4633 11.8098 27.2908 9.96976 26.9488C8.10597 26.6069 5.29838 24.1736 7.05907 19.4343C8.05838 16.7466 9.24803 14.035 13.9749 7.10896C13.9749 7.10896 16.5049 3.93617 18.2973 2.90243C21.787 0.882656 25.2687 1.18483 27.4736 2.46507C24.7611 0.882656 21.6601 0.0553676 18.5273 0.0553676C15.5136 0.047711 12.4522 0.819041 9.65252 2.44122C1.15045 7.36342 -1.76817 18.2734 3.14114 26.7977Z" fill="url(#paint0_linear_1_179)"/>
<path d="M25.6256 27.0761C22.8022 27.5532 19.8677 27.8712 11.5242 27.2351C11.5242 27.2351 7.51907 26.6228 5.73459 25.5891C2.25286 23.5693 0.76953 20.4124 0.76953 17.8519C0.761829 24.0146 3.9501 30.0182 9.66838 33.3262C18.1546 38.2484 29.036 35.3301 33.9453 26.7977C36.0549 23.1399 36.7132 19.0367 36.1184 15.1642C36.0867 15.1721 30.0353 19.0288 30.6618 20.7941C31.2884 22.5833 30.5984 26.2411 25.6256 27.0761Z" fill="url(#paint1_linear_1_179)"/>
<path d="M15.0961 5.8218C15.0661 5.85194 15.036 5.88207 15.016 5.9122C15.046 5.88207 15.0661 5.85194 15.0961 5.8218ZM15.0774 5.82076C16.3701 4.42123 19.7963 3.30797 22.9449 7.14076C24.7691 9.35138 26.5139 11.7449 30.1305 19.3071C30.1305 19.3071 31.6056 23.0922 31.6056 25.1597C31.6056 29.1992 29.607 32.0698 27.3942 33.3501C32.7318 30.2727 36.3246 24.4997 36.3246 17.8837C36.3246 14.6394 35.4601 11.6097 33.9532 8.98559C32.3908 6.25811 30.1225 3.99183 27.4022 2.42532C26.3315 1.82097 24.9674 1.43929 23.4605 1.43929C21.8584 1.43929 20.0818 1.86869 18.2974 2.89447C17.2584 3.49881 15.9736 4.81882 15.0774 5.82076Z" fill="url(#paint2_linear_1_179)"/>
<defs>
<linearGradient id="paint0_linear_1_179" x1="1443.33" y1="385.484" x2="527.094" y2="2763.14" gradientUnits="userSpaceOnUse">
<stop stop-color="#EB6100"/>
<stop offset="0.19" stop-color="#F29344"/>
<stop offset="0.665" stop-color="#EE7815"/>
<stop offset="1" stop-color="#EB6100"/>
</linearGradient>
<linearGradient id="paint1_linear_1_179" x1="1.12071" y1="1042.67" x2="3556.76" y2="1042.67" gradientUnits="userSpaceOnUse">
<stop stop-color="#676763"/>
<stop offset="0.19" stop-color="#CACAC7"/>
<stop offset="1" stop-color="#44433F"/>
</linearGradient>
<linearGradient id="paint2_linear_1_179" x1="1402.09" y1="2365.62" x2="352.414" y2="507.244" gradientUnits="userSpaceOnUse">
<stop stop-color="#22AC38"/>
<stop offset="0.19" stop-color="#9DC93A"/>
<stop offset="0.7" stop-color="#56B547"/>
<stop offset="1" stop-color="#009944"/>
</linearGradient>
</defs>
</svg>
